<svg width="38" height="40" viewBox="0 0 38 40" fill="none" xmlns="http://www.w3.org/2000/svg">
  <path d="M23.75 3.01036C20.8107 1.31335 17.1893 1.31335 14.25 3.01036L6.66154 7.39156C3.72223 9.08857 1.91154 12.2248 1.91154 15.6188V24.3812C1.91154 27.7752 3.72223 30.9114 6.66154 32.6084L14.25 36.9896C17.1893 38.6867 20.8107 38.6866 23.75 36.9896L31.3385 32.6084C34.2778 30.9114 36.0885 27.7752 36.0885 24.3812V15.6188C36.0885 12.2248 34.2778 9.08857 31.3385 7.39156L23.75 3.01036Z" fill="#D8D9DA" stroke="#D8D9DA" stroke-width="2"/>
  <g transform="scale(0.30) translate(30, 30)">
    <g id="SVGRepo_bgCarrier" stroke-width="0"/>
    <g id="SVGRepo_tracerCarrier" stroke-linecap="round" stroke-linejoin="round" stroke="#CCCCCC" stroke-width="1.28"/>
    <g id="SVGRepo_iconCarrier">
      <rect x="12" y="10" fill="#61677A" width="40" height="40"/>
      <path fill="#61677A" d="M48,0H16c-2.211,0-4,1.789-4,4v4h40V4C52,1.789,50.211,0,48,0z M33,5.998h-6c-0.553,0-1-0.447-1-1s0.447-1,1-1h6c0.553,0,1,0.447,1,1S33.553,5.998,33,5.998z M37,5.998c-0.553,0-1-0.447-1-1s0.447-1,1-1s1,0.447,1,1S37.553,5.998,37,5.998z"/>
      <g>
        <circle fill="#61677A" cx="32" cy="56.998" r="1"/>
        <path fill="#61677A" d="M12,52v8c0,2.211,1.789,4,4,4h32c2.211,0,4-1.789,4-4v-8H12z M32,59.998c-1.658,0-3-1.342-3-3s1.342-3,3-3 s3,1.342,3,3S33.658,59.998,32,59.998z"/>
      </g>
    </g>
  </g>
</svg>
